<svg viewBox="0 0 64 48" fill="none" xmlns="http://www.w3.org/2000/svg">
<g id="Frame 1964296695">
<rect width="64" height="48" fill="white" style="fill:white;fill-opacity:1;"/>
<g id="Logo">
<path d="M22.34 6H28V8.76923H22.34C20.2659 8.76923 18.8844 8.77153 17.8243 8.86001C16.7984 8.94562 16.3311 9.09684 16.0347 9.25205C15.2906 9.64168 14.6821 10.2435 14.2882 10.9794C14.1313 11.2725 13.9784 11.7347 13.8918 12.7493C13.8023 13.7978 13.8 15.1641 13.8 17.2154V30.7846C13.8 32.8359 13.8023 34.2022 13.8918 35.2507C13.9784 36.2653 14.1313 36.7275 14.2882 37.0206C14.6821 37.7565 15.2906 38.3583 16.0347 38.7479C16.3311 38.9032 16.7984 39.0544 17.8243 39.14C18.8844 39.2285 20.2659 39.2308 22.34 39.2308H28V42H22.34C18.2875 42 16.2612 42 14.7245 41.1953C13.4844 40.5459 12.4702 39.5429 11.8136 38.3164C11 36.7966 11 34.7926 11 30.7846V17.2154C11 13.2074 11 11.2034 11.8136 9.68356C12.4702 8.45709 13.4844 7.45408 14.7245 6.8047C16.2612 6 18.2875 6 22.34 6Z" fill="var(--fill-0, black)" style="fill:black;fill-opacity:1;"/>
<path d="M41.66 39.2308H36V42H41.66C45.7125 42 47.7388 42 49.2755 41.1953C50.5156 40.5459 51.5298 39.5429 52.1864 38.3164C53 36.7966 53 34.7926 53 30.7846V17.2154C53 13.2074 53 11.2034 52.1864 9.68356C51.5298 8.45709 50.5156 7.45408 49.2755 6.8047C47.7388 6 45.7125 6 41.66 6H36V8.76923H41.66C43.7341 8.76923 45.1156 8.77153 46.1757 8.86001C47.2016 8.94562 47.6689 9.09684 47.9653 9.25205C48.7094 9.64168 49.3179 10.2435 49.7118 10.9794C49.8687 11.2725 50.0216 11.7347 50.1082 12.7493C50.1977 13.7978 50.2 15.1641 50.2 17.2154V30.7846C50.2 32.8359 50.1977 34.2022 50.1082 35.2507C50.0216 36.2653 49.8687 36.7275 49.7118 37.0206C49.3179 37.7565 48.7094 38.3583 47.9653 38.7479C47.6689 38.9032 47.2016 39.0544 46.1757 39.14C45.1156 39.2285 43.7341 39.2308 41.66 39.2308Z" fill="var(--fill-0, black)" style="fill:black;fill-opacity:1;"/>
<path d="M17.9708 26.7697C17.3758 27.6648 16.8333 28.545 16.3433 29.4104H18.6833C19.0083 28.7824 19.3858 28.1271 19.8158 27.4447C20.2458 26.7623 20.6833 26.0972 21.1283 25.4494C21.5733 26.0873 22.0083 26.7524 22.4333 27.4447C22.8633 28.137 23.2458 28.7922 23.5808 29.4104H26.0558C25.5708 28.5598 25.0308 27.6895 24.4358 26.7994C23.8458 25.9043 23.2483 25.0464 22.6433 24.2255C23.2333 23.3947 23.8208 22.5367 24.4058 21.6516C24.9958 20.7615 25.5358 19.8862 26.0258 19.0258H23.6933C23.3683 19.6439 22.9933 20.2917 22.5683 20.9692C22.1433 21.6466 21.7108 22.3043 21.2708 22.9422C20.8308 22.3093 20.4008 21.6516 19.9808 20.9692C19.5608 20.2867 19.1858 19.6389 18.8558 19.0258H16.3733C16.8533 19.8664 17.3858 20.7318 17.9708 21.6219C18.5608 22.5071 19.1583 23.3576 19.7633 24.1736C19.1633 25.0093 18.5658 25.8747 17.9708 26.7697Z" fill="var(--fill-0, black)" style="fill:black;fill-opacity:1;"/>
<path fill-rule="evenodd" clip-rule="evenodd" d="M27.6257 19.0258V29.4104H31.9232C33.0282 29.4104 33.9782 29.1878 34.7732 28.7428C35.5732 28.2928 36.1882 27.6771 36.6182 26.8958C37.0482 26.1145 37.2632 25.2219 37.2632 24.2181C37.2632 23.2142 37.0482 22.3216 36.6182 21.5403C36.1882 20.759 35.5732 20.1458 34.7732 19.7008C33.9782 19.2508 33.0282 19.0258 31.9232 19.0258H27.6257ZM29.7782 20.9469H31.9157C32.8957 20.9469 33.6607 21.2461 34.2107 21.8444C34.7607 22.4378 35.0357 23.2291 35.0357 24.2181C35.0357 25.2021 34.7607 25.9933 34.2107 26.5917C33.6607 27.19 32.8957 27.4892 31.9157 27.4892H29.7782V20.9469Z" fill="var(--fill-0, black)" style="fill:black;fill-opacity:1;"/>
<path d="M40.1569 29.084C40.9269 29.4252 41.8244 29.5958 42.8494 29.5958H43.0669C44.3519 29.5958 45.3669 29.3139 46.1119 28.7502C46.8569 28.1865 47.2294 27.4076 47.2294 26.4137C47.2294 25.8203 47.1094 25.3332 46.8694 24.9524C46.6294 24.5667 46.3269 24.2626 45.9619 24.04C45.6019 23.8175 45.2369 23.6519 44.8669 23.5431C44.4969 23.4343 44.1794 23.3552 43.9144 23.3057L42.3319 23.0016C41.8769 22.9126 41.5019 22.7914 41.2069 22.6381C40.9169 22.4799 40.7719 22.2203 40.7719 21.8593C40.7719 21.5032 40.9444 21.2238 41.2894 21.0211C41.6344 20.8134 42.1169 20.7096 42.7369 20.7096H42.9469C43.4669 20.7096 43.9544 20.8085 44.4094 21.0063C44.8694 21.2041 45.3069 21.5428 45.7219 22.0225L47.0494 20.7466C46.5644 20.1285 45.9794 19.6563 45.2944 19.3299C44.6144 19.0035 43.8394 18.8403 42.9694 18.8403H42.7519C41.9219 18.8403 41.1969 18.9714 40.5769 19.2335C39.9619 19.4906 39.4819 19.8565 39.1369 20.3313C38.7969 20.806 38.6269 21.3672 38.6269 22.015C38.6269 22.5392 38.7294 22.9793 38.9344 23.3354C39.1444 23.6914 39.4119 23.9807 39.7369 24.2032C40.0669 24.4258 40.4169 24.6013 40.7869 24.7299C41.1569 24.8535 41.5019 24.945 41.8219 25.0043L43.4044 25.3159C43.6644 25.3653 43.9219 25.4346 44.1769 25.5236C44.4369 25.6076 44.6519 25.7313 44.8219 25.8944C44.9919 26.0576 45.0769 26.2802 45.0769 26.562C45.0769 27.3236 44.3969 27.7043 43.0369 27.7043H42.8269C42.1869 27.7043 41.5994 27.5856 41.0644 27.3483C40.5344 27.106 40.0619 26.7376 39.6469 26.2431L38.2894 27.5931C38.7694 28.2458 39.3919 28.7428 40.1569 29.084Z" fill="var(--fill-0, black)" style="fill:black;fill-opacity:1;"/>
</g>
</g>
</svg>
